name rise38.3101peak57.3503fall81.6963.mot
datacolumns 19
datarows 32
range 1.85333500000000 1.90500100000000
endheader
time	ground_force1_vx	ground_force1_vy	ground_force1_vz	ground_force1_px	ground_force1_py	ground_force1_pz	ground_force2_vx	ground_force2_vy	ground_force2_vz	ground_force2_px	ground_force2_py	ground_force2_pz	ground_torque1_x	ground_torque1_y	ground_torque1_z	ground_torque2_x	ground_torque2_y	ground_torque2_z	
1.85333500000000	-9.90168400000000	45.75283700000000	-13.16381400000000	0.34478300000000	0.00000000000000	0.08268100000000	-45.13669200000000	803.72992799999997	-51.41915700000000	0.13984100000000	0.00000000000000	-0.08648400000000	0.00000000000000	-9.29858000000000	0.00000000000000	0.00000000000000	-21.98241500000000	0.00000000000000	
1.85499500000000	-10.71883900000000	52.43897400000000	-14.61220600000000	0.35017600000000	0.00000000000000	0.08350800000000	-45.83929200000000	801.80356500000005	-50.93781700000000	0.13902700000000	0.00000000000000	-0.08639700000000	0.00000000000000	-10.41986400000000	0.00000000000000	0.00000000000000	-21.87597100000000	0.00000000000000	
1.85666300000000	-11.36845500000000	59.09140800000000	-15.92722600000000	0.35507900000000	0.00000000000000	0.08427000000000	-46.55488300000000	799.76962400000002	-50.43316700000000	0.13822200000000	0.00000000000000	-0.08630600000000	0.00000000000000	-11.46095100000000	0.00000000000000	0.00000000000000	-21.76916200000000	0.00000000000000	
1.85833200000000	-11.83551600000000	65.64328600000000	-17.08810600000000	0.35956000000000	0.00000000000000	0.08497500000000	-47.28317700000000	797.62629000000004	-49.90528500000000	0.13742600000000	0.00000000000000	-0.08621200000000	0.00000000000000	-12.40492200000000	0.00000000000000	0.00000000000000	-21.66205300000000	0.00000000000000	
1.86000200000000	-12.11411600000000	72.05184900000000	-18.08385700000000	0.36367700000000	0.00000000000000	0.08563400000000	-48.02381000000000	795.37170400000002	-49.35427800000000	0.13663900000000	0.00000000000000	-0.08611400000000	0.00000000000000	-13.24185200000000	0.00000000000000	0.00000000000000	-21.55469800000000	0.00000000000000	
1.86166700000000	-12.20667800000000	78.29810200000000	-18.91267300000000	0.36747700000000	0.00000000000000	0.08625000000000	-48.77634300000000	793.00396899999998	-48.78027300000000	0.13586100000000	0.00000000000000	-0.08601300000000	0.00000000000000	-13.96853000000000	0.00000000000000	0.00000000000000	-21.44713500000000	0.00000000000000	
1.86333300000000	-12.12262200000000	84.38457699999999	-19.58068800000000	0.37099800000000	0.00000000000000	0.08683000000000	-49.54025900000000	790.52114500000005	-48.18342600000000	0.13509400000000	0.00000000000000	-0.08590800000000	0.00000000000000	-14.58767700000000	0.00000000000000	0.00000000000000	-21.33938900000000	0.00000000000000	
1.86499400000000	-11.87669500000000	90.33171700000000	-20.10029000000000	0.37427200000000	0.00000000000000	0.08737900000000	-50.31496200000000	787.92125599999997	-47.56391900000000	0.13433500000000	0.00000000000000	-0.08579900000000	0.00000000000000	-15.10679600000000	0.00000000000000	0.00000000000000	-21.23147200000000	0.00000000000000	
1.86666400000000	-11.48715400000000	96.17341600000000	-20.48822100000000	0.37732800000000	0.00000000000000	0.08789900000000	-51.09977500000000	785.20229099999995	-46.92196300000000	0.13358700000000	0.00000000000000	-0.08568700000000	0.00000000000000	-15.53684000000000	0.00000000000000	0.00000000000000	-21.12337900000000	0.00000000000000	
1.86833100000000	-10.97397200000000	101.95222900000000	-20.76365100000000	0.38018700000000	0.00000000000000	0.08839500000000	-51.89394000000000	782.36220600000001	-46.25779700000000	0.13284800000000	0.00000000000000	-0.08557100000000	0.00000000000000	-15.89082000000000	0.00000000000000	0.00000000000000	-21.01509300000000	0.00000000000000	
1.86999600000000	-10.35722700000000	107.71470400000000	-20.94639200000000	0.38287100000000	0.00000000000000	0.08886800000000	-52.69661500000000	779.39893099999995	-45.57168900000000	0.13212000000000	0.00000000000000	-0.08545100000000	0.00000000000000	-16.18248600000000	0.00000000000000	0.00000000000000	-20.90658100000000	0.00000000000000	
1.87166700000000	-9.65574800000000	113.50718700000000	-21.05536300000000	0.38539400000000	0.00000000000000	0.08932100000000	-53.50687700000000	776.31037200000003	-44.86393900000000	0.13140100000000	0.00000000000000	-0.08532800000000	0.00000000000000	-16.42517600000000	0.00000000000000	0.00000000000000	-20.79779700000000	0.00000000000000	
1.87333300000000	-8.88609900000000	119.37234599999999	-21.10739200000000	0.38777200000000	0.00000000000000	0.08975600000000	-54.32372100000000	773.09441200000003	-44.13487800000000	0.13069300000000	0.00000000000000	-0.08520100000000	0.00000000000000	-16.63089600000000	0.00000000000000	0.00000000000000	-20.68867900000000	0.00000000000000	
1.87500100000000	-8.06190900000000	125.34655400000000	-21.11638500000000	0.39001600000000	0.00000000000000	0.09017500000000	-55.14605600000000	769.74892499999999	-43.38487100000000	0.12999400000000	0.00000000000000	-0.08507100000000	0.00000000000000	-16.80965600000000	0.00000000000000	0.00000000000000	-20.57915300000000	0.00000000000000	
1.87666500000000	-7.19354600000000	131.45818800000001	-21.09285900000000	0.39213900000000	0.00000000000000	0.09057900000000	-55.97271100000000	766.27177300000005	-42.61431400000000	0.12930600000000	0.00000000000000	-0.08493600000000	0.00000000000000	-16.96908500000000	0.00000000000000	0.00000000000000	-20.46913000000000	0.00000000000000	
1.87833200000000	-6.28809000000000	137.72680399999999	-21.04381400000000	0.39414700000000	0.00000000000000	0.09097000000000	-56.80243400000000	762.66081599999995	-41.82364100000000	0.12862800000000	0.00000000000000	-0.08479800000000	0.00000000000000	-17.11428100000000	0.00000000000000	0.00000000000000	-20.35850600000000	0.00000000000000	
1.87999900000000	-5.34956500000000	144.16308699999999	-20.97289300000000	0.39605000000000	0.00000000000000	0.09134800000000	-57.63389300000000	758.91391799999997	-41.01331900000000	0.12796000000000	0.00000000000000	-0.08465700000000	0.00000000000000	-17.24789200000000	0.00000000000000	0.00000000000000	-20.24716700000000	0.00000000000000	
1.88166400000000	-4.37934800000000	150.76944399999999	-20.88075700000000	0.39785500000000	0.00000000000000	0.09171500000000	-58.46567700000000	755.02895500000000	-40.18385100000000	0.12730200000000	0.00000000000000	-0.08451200000000	0.00000000000000	-17.37035900000000	0.00000000000000	0.00000000000000	-20.13498500000000	0.00000000000000	
1.88333100000000	-3.37671300000000	157.54107700000000	-20.76562000000000	0.39956600000000	0.00000000000000	0.09207100000000	-59.29629800000000	751.00381800000002	-39.33577900000000	0.12665400000000	0.00000000000000	-0.08436300000000	0.00000000000000	-17.48028500000000	0.00000000000000	0.00000000000000	-20.02181900000000	0.00000000000000	
1.88499700000000	-2.33942600000000	164.46736799999999	-20.62386800000000	0.40119000000000	0.00000000000000	0.09241700000000	-60.12419700000000	746.83642799999996	-38.46968100000000	0.12601600000000	0.00000000000000	-0.08421100000000	0.00000000000000	-17.57487700000000	0.00000000000000	0.00000000000000	-19.90751900000000	0.00000000000000	
1.88666400000000	-1.26435000000000	171.53340900000001	-20.45069800000000	0.40273000000000	0.00000000000000	0.09275500000000	-60.94773900000000	742.52473599999996	-37.58617400000000	0.12538800000000	0.00000000000000	-0.08405500000000	0.00000000000000	-17.65040800000000	0.00000000000000	0.00000000000000	-19.79192100000000	0.00000000000000	
1.88832800000000	-0.14800300000000	178.72154399999999	-20.24073400000000	0.40419100000000	0.00000000000000	0.09308400000000	-61.76522600000000	738.06673899999998	-36.68591300000000	0.12477000000000	0.00000000000000	-0.08389500000000	0.00000000000000	-17.70267400000000	0.00000000000000	0.00000000000000	-19.67485600000000	0.00000000000000	
1.89000100000000	1.01295500000000	186.01280800000001	-19.98856800000000	0.40557600000000	0.00000000000000	0.09340400000000	-62.57489200000000	733.46048800000005	-35.76959200000000	0.12416100000000	0.00000000000000	-0.08373300000000	0.00000000000000	-17.72739700000000	0.00000000000000	0.00000000000000	-19.55614100000000	0.00000000000000	
1.89166200000000	2.22133200000000	193.38817200000000	-19.68921800000000	0.40688600000000	0.00000000000000	0.09371800000000	-63.37491300000000	728.70409500000005	-34.83794400000000	0.12356100000000	0.00000000000000	-0.08356600000000	0.00000000000000	-17.72057000000000	0.00000000000000	0.00000000000000	-19.43558800000000	0.00000000000000	
1.89332800000000	3.47912400000000	200.82954899999999	-19.33846100000000	0.40812600000000	0.00000000000000	0.09402400000000	-64.16340700000001	723.79574900000000	-33.89174300000000	0.12297000000000	0.00000000000000	-0.08339700000000	0.00000000000000	-17.67871700000000	0.00000000000000	0.00000000000000	-19.31300100000000	0.00000000000000	
1.89500000000000	4.78733900000000	208.32052200000001	-18.93306500000000	0.40929600000000	0.00000000000000	0.09432300000000	-64.93844199999999	718.73372300000005	-32.93179800000000	0.12238900000000	0.00000000000000	-0.08322400000000	0.00000000000000	-17.59907100000000	0.00000000000000	0.00000000000000	-19.18817800000000	0.00000000000000	
1.89666000000000	6.14592500000000	215.84681200000000	-18.47090600000000	0.41039900000000	0.00000000000000	0.09461600000000	-65.69803700000000	713.51639299999999	-31.95896000000000	0.12181500000000	0.00000000000000	-0.08304800000000	0.00000000000000	-17.47967600000000	0.00000000000000	0.00000000000000	-19.06091200000000	0.00000000000000	
1.89832800000000	7.55377900000000	223.39649399999999	-17.95099000000000	0.41143500000000	0.00000000000000	0.09490200000000	-66.44017200000000	708.14224300000001	-30.97411600000000	0.12125000000000	0.00000000000000	-0.08286800000000	0.00000000000000	-17.31941000000000	0.00000000000000	0.00000000000000	-18.93099100000000	0.00000000000000	
1.89999400000000	9.00883000000000	230.95999499999999	-17.37339900000000	0.41240700000000	0.00000000000000	0.09518300000000	-67.16279000000000	702.60988799999996	-29.97818900000000	0.12069300000000	0.00000000000000	-0.08268600000000	0.00000000000000	-17.11795100000000	0.00000000000000	0.00000000000000	-18.79820100000000	0.00000000000000	
1.90166000000000	10.50816900000000	238.52992800000001	-16.73917400000000	0.41331400000000	0.00000000000000	0.09545800000000	-67.86380400000000	696.91808200000003	-28.97213900000000	0.12014300000000	0.00000000000000	-0.08250000000000	0.00000000000000	-16.87570000000000	0.00000000000000	0.00000000000000	-18.66232600000000	0.00000000000000	
1.90333100000000	12.04820600000000	246.10079999999999	-16.05016000000000	0.41415800000000	0.00000000000000	0.09572700000000	-68.54110100000000	691.06573300000002	-27.95696100000000	0.11960000000000	0.00000000000000	-0.08231100000000	0.00000000000000	-16.59367000000000	0.00000000000000	0.00000000000000	-18.52314900000000	0.00000000000000	
1.90500100000000	13.62485300000000	253.66864500000000	-15.30883600000000	0.41493900000000	0.00000000000000	0.09599100000000	-69.19255400000000	685.05192399999999	-26.93368200000000	0.11906400000000	0.00000000000000	-0.08211900000000	0.00000000000000	-16.27336000000000	0.00000000000000	0.00000000000000	-18.38045300000000	0.00000000000000	
